<svg xmlns="http://www.w3.org/2000/svg" viewBox="0 0 23.61 23.61"><defs><style>.cls-1{fill:#808285;}</style></defs><title>Ресурс 10</title><g id="Слой_2" data-name="Слой 2"><g id="hobots.io"><g id="хедер"><g id="юзер_бар" data-name="юзер бар"><g id="профиль"><path id="иконка" class="cls-1" d="M3.32,20a12.36,12.36,0,1,0-.15-.16.7.7,0,0,0,.15.16Zm8.48,2.24a10.4,10.4,0,0,1-6.75-2.48c3.06-1,4.19-2.25,4.61-3.07a5,5,0,0,0,2,.4h.16a5,5,0,0,0,2.1-.47c.39.82,1.5,2.1,4.65,3.14a10.35,10.35,0,0,1-6.73,2.48ZM8,9.62v0C8.15,6,10.79,5.72,11.6,5.72h.22c.8,0,3.44.28,3.61,3.86v0s.34,3.34-1.2,5.08a3.17,3.17,0,0,1-2.49,1h0a3.19,3.19,0,0,1-2.49-1C7.65,13,8,9.65,8,9.62ZM11.8,1.36a10.44,10.44,0,0,1,7.84,17.33C15.21,17.4,15,15.84,15,15.82v0h0l.25-.25c1.89-2.12,1.57-5.75,1.54-6.11-.19-3.79-2.79-5.13-5-5.13H11.6c-2.18,0-4.78,1.34-5,5.13,0,.35-.34,4,1.54,6.11.11.12.23.24.34.35-.14.4-.87,1.66-4.56,2.74A10.43,10.43,0,0,1,11.8,1.36Zm0,0"/></g></g></g></g></g></svg>