<svg xmlns="http://www.w3.org/2000/svg" viewBox="0 0 20.55 18.03"><defs><style>.cls-1{fill:#796c9a;}</style></defs><title>Ресурс 1</title><g id="Слой_2" data-name="Слой 2"><g id="hobots.io"><g id="сайдбар"><g id="чат"><g id="заголовок"><g id="иконка"><path class="cls-1" d="M18.88,0H1.68A1.68,1.68,0,0,0,0,1.68V11.73a1.68,1.68,0,0,0,1.68,1.68h1v4.14a.48.48,0,0,0,.82.34l4.48-4.48H18.88a1.68,1.68,0,0,0,1.68-1.68V1.68A1.68,1.68,0,0,0,18.88,0Zm.72,11.73a.72.72,0,0,1-.72.72H7.75a.48.48,0,0,0-.32.12h0l0,0-3.8,3.8V12.93a.35.35,0,0,0,0,0,.48.48,0,0,0-.48-.43H1.68A.72.72,0,0,1,1,11.73V1.68A.72.72,0,0,1,1.68,1h17.2a.72.72,0,0,1,.72.72V11.73Z"/><path class="cls-1" d="M4.2,4.45H7a.48.48,0,1,0,0-1H4.2a.48.48,0,0,0,0,1Z"/><path class="cls-1" d="M4.2,7.18H12a.48.48,0,1,0,0-1H4.2a.48.48,0,0,0,0,1Z"/><path class="cls-1" d="M16.36,3.49H9.78a.48.48,0,0,0,0,1h6.58a.48.48,0,1,0,0-1Z"/><path class="cls-1" d="M16.36,6.23H14.63a.48.48,0,1,0,0,1h1.73a.48.48,0,1,0,0-1Z"/><path class="cls-1" d="M8.53,9H4.2a.48.48,0,0,0,0,1H8.53a.48.48,0,1,0,0-1Z"/><path class="cls-1" d="M16.36,9H11.07a.48.48,0,1,0,0,1h5.29a.48.48,0,1,0,0-1Z"/></g></g></g></g></g></g></svg>