<svg xmlns="http://www.w3.org/2000/svg" viewBox="0 0 10.68 21.14"><defs><style>.cls-1{fill:#fff;}</style></defs><title>Ресурс 9</title><g id="Слой_2" data-name="Слой 2"><g id="hobots.io"><g id="футер_выпад._аним._элемент_" data-name="футер (выпад. аним. элемент)"><g id="контакты"><g id="соцсети"><g id="фейсбук"><path id="иконка" class="cls-1" d="M.34,11.26H2.66V20.8a.34.34,0,0,0,.34.34H6.93a.34.34,0,0,0,.34-.34V11.3H9.93a.34.34,0,0,0,.34-.3l.4-3.51a.34.34,0,0,0-.34-.38H7.27V4.91c0-.66.36-1,1.06-1h2a.34.34,0,0,0,.34-.34V.34A.34.34,0,0,0,10.34,0H7.44A5.3,5.3,0,0,0,4,1.31,3.63,3.63,0,0,0,2.77,4.53V7.11H.34A.34.34,0,0,0,0,7.45v3.47A.34.34,0,0,0,.34,11.26Z"/></g></g></g></g></g></g></svg>