<svg xmlns="http://www.w3.org/2000/svg" viewBox="0 0 20.7 18.02"><defs><style>.cls-1{fill:#4eb0e3;}</style></defs><title>Ресурс 4</title><g id="Слой_2" data-name="Слой 2"><g id="hobots.io"><g id="футер_выпад._аним._элемент_" data-name="футер (выпад. аним. элемент)"><g id="контакты"><g id="соцсети"><g id="телеграм"><path id="иконка_при_курсоре" data-name="иконка при курсоре" class="cls-1" d="M19.94,0,.36,7.59a.56.56,0,0,0,0,1.05l4.77,1.78L7,16.36a.56.56,0,0,0,.89.27l2.66-2.17a.79.79,0,0,1,1,0l4.8,3.48a.56.56,0,0,0,.88-.34L20.69.68A.56.56,0,0,0,19.94,0ZM16.2,4,8.51,11.14a1.59,1.59,0,0,0-.49,1L7.75,14a.24.24,0,0,1-.47,0l-1-3.54a.94.94,0,0,1,.41-1.06L16,3.73A.16.16,0,0,1,16.2,4Z"/></g></g></g></g></g></g></svg>