<svg xmlns="http://www.w3.org/2000/svg" viewBox="0 0 22.415 22.488"><defs><style>.cls-1{fill:#fdc20f;}.cls-2{fill:#fff;}</style></defs><title>биткоинтолк</title><g id="Слой_2" data-name="Слой 2"><g id="hobots.io"><g id="биткоинтолк"><g id="иконка_при_курсоре" data-name="иконка при курсоре"><path class="cls-1" d="M13.226,12.187a1.4,1.4,0,0,0-.423-.224,3.7,3.7,0,0,0-.481-.136,4.48,4.48,0,0,0-.543-.066c-.216-.015-.385-.022-.507-.022s-.281,0-.474.007l-.349.008v2.483l.272,0c.142,0,.259,0,.352,0s.223,0,.39-.011.31-.017.429-.029.26-.033.419-.063a2.681,2.681,0,0,0,.408-.1,2.47,2.47,0,0,0,.349-.154,1.03,1.03,0,0,0,.29-.22,1.068,1.068,0,0,0,.18-.294,1.046,1.046,0,0,0-.041-.845A1.089,1.089,0,0,0,13.226,12.187Z"/><path class="cls-1" d="M11.208,3.083a8.131,8.131,0,1,0,8.131,8.13A8.13,8.13,0,0,0,11.208,3.083ZM15.84,13.215a2.773,2.773,0,0,1-.238.919,2.027,2.027,0,0,1-.474.653,2.394,2.394,0,0,1-.712.43,4.362,4.362,0,0,1-.893.254,8.9,8.9,0,0,1-1.069.11v1.873H11.323V15.611q-.587,0-.9-.008v1.851H9.3V15.581c-.088,0-.221,0-.4,0l-.4,0H7.026l.228-1.344h.815a.393.393,0,0,0,.426-.375V10.9h.117a.73.73,0,0,0-.117-.007V8.786a.584.584,0,0,0-.654-.5H7.026V7.082l1.557.008q.47,0,.713-.008V5.231h1.131V7.045c.4-.009.7-.014.9-.014v-1.8h1.131V7.082a6.763,6.763,0,0,1,1.029.165,3.419,3.419,0,0,1,.83.331,1.677,1.677,0,0,1,.606.573,1.881,1.881,0,0,1,.268.841,1.742,1.742,0,0,1-.962,1.895,2.2,2.2,0,0,1,1.285.757A2.169,2.169,0,0,1,15.84,13.215Z"/><path class="cls-1" d="M10.449,10.623l.253,0q.217,0,.342,0c.083,0,.206-.007.368-.014a3.116,3.116,0,0,0,.4-.041c.108-.019.234-.046.379-.08a1.279,1.279,0,0,0,.356-.136,2.073,2.073,0,0,0,.272-.2.705.705,0,0,0,.2-.283,1.016,1.016,0,0,0,.066-.374.968.968,0,0,0-.092-.43,1.026,1.026,0,0,0-.224-.309,1.078,1.078,0,0,0-.353-.205,2.6,2.6,0,0,0-.4-.122,4.032,4.032,0,0,0-.452-.058c-.179-.015-.321-.021-.426-.019l-.4.008-.29,0h0Z"/><path class="cls-1" d="M11.208,0A11.208,11.208,0,1,0,22.415,11.208,11.207,11.207,0,0,0,11.208,0Zm0,21.536A10.324,10.324,0,1,1,21.531,11.212,10.324,10.324,0,0,1,11.208,21.536Z"/></g><g id="иконка"><path class="cls-2" d="M13.226,12.26a1.376,1.376,0,0,0-.423-.224,3.547,3.547,0,0,0-.481-.136,4.112,4.112,0,0,0-.543-.066c-.216-.015-.385-.022-.507-.022s-.281,0-.474.007-.31.007-.349.007v2.483l.272,0c.142,0,.259,0,.352,0s.223,0,.39-.011.31-.018.429-.03.26-.033.419-.062a2.94,2.94,0,0,0,.408-.1,2.591,2.591,0,0,0,.349-.154,1.032,1.032,0,0,0,.29-.221,1.053,1.053,0,0,0,.18-.294.959.959,0,0,0,.07-.374.974.974,0,0,0-.111-.47A1.089,1.089,0,0,0,13.226,12.26Z"/><path class="cls-2" d="M11.208,3.155a8.131,8.131,0,1,0,8.131,8.131A8.131,8.131,0,0,0,11.208,3.155ZM15.84,13.288a2.761,2.761,0,0,1-.238.918,2.02,2.02,0,0,1-.474.654,2.394,2.394,0,0,1-.712.43,4.362,4.362,0,0,1-.893.254,9.109,9.109,0,0,1-1.069.11v1.873H11.323V15.683q-.587,0-.9-.007v1.851H9.3V15.654l-.4,0-.4,0H7.026L7.254,14.3h.815a.392.392,0,0,0,.426-.375V10.975h.117a.712.712,0,0,0-.117-.008V8.859a.584.584,0,0,0-.654-.5H7.026v-1.2l1.557.007q.47,0,.713-.007V5.3h1.131V7.118c.4-.01.7-.015.9-.015V5.3h1.131V7.155a6.523,6.523,0,0,1,1.029.165,3.341,3.341,0,0,1,.83.331,1.683,1.683,0,0,1,.606.572,1.889,1.889,0,0,1,.268.841,1.743,1.743,0,0,1-.962,1.9,2.2,2.2,0,0,1,1.285.756A2.171,2.171,0,0,1,15.84,13.288Z"/><path class="cls-2" d="M10.449,10.7l.253,0q.217,0,.342,0c.083,0,.206-.008.368-.015a2.968,2.968,0,0,0,.4-.04c.108-.02.234-.047.379-.081a1.22,1.22,0,0,0,.356-.136,1.977,1.977,0,0,0,.272-.2.705.705,0,0,0,.2-.283,1.025,1.025,0,0,0,.066-.375.963.963,0,0,0-.092-.429,1.026,1.026,0,0,0-.224-.309,1.078,1.078,0,0,0-.353-.205,2.493,2.493,0,0,0-.4-.122,4.251,4.251,0,0,0-.452-.059q-.269-.021-.426-.018c-.106,0-.238,0-.4.007l-.29,0h0Z"/><path class="cls-2" d="M11.208.073A11.208,11.208,0,1,0,22.415,11.281,11.207,11.207,0,0,0,11.208.073Zm0,21.536A10.324,10.324,0,1,1,21.531,11.285,10.324,10.324,0,0,1,11.208,21.609Z"/></g></g></g></g></svg>