<svg xmlns="http://www.w3.org/2000/svg" viewBox="0 0 10.426 10.426"><defs><style>.cls-1{fill:#808285;}</style></defs><title>иконка (2)</title><g id="Слой_2" data-name="Слой 2"><g id="hobots.io"><path id="иконка" class="cls-1" d="M9.506,8.137a.285.285,0,0,0-.057-.163q-.456-.546-.733-.937a3.916,3.916,0,0,0,.26-.619l1.263-.2a.191.191,0,0,0,.13-.085.267.267,0,0,0,.057-.159V4.472a.242.242,0,0,0-.057-.159.231.231,0,0,0-.138-.085L8.993,4.04a5.615,5.615,0,0,0-.278-.668q.123-.178.367-.488c.163-.207.277-.353.342-.44a.278.278,0,0,0,.057-.155q0-.221-1.173-1.3A.267.267,0,0,0,8.137.92a.242.242,0,0,0-.163.057L7.013,1.7A3.594,3.594,0,0,0,6.4,1.45L6.215.2A.207.207,0,0,0,6.133.061.245.245,0,0,0,5.97,0H4.456a.239.239,0,0,0-.245.2A9.486,9.486,0,0,0,4.024,1.45a3.839,3.839,0,0,0-.627.261L2.46.977A.292.292,0,0,0,2.289.92c-.1,0-.318.161-.643.481a6.959,6.959,0,0,0-.669.725.238.238,0,0,0-.056.163.309.309,0,0,0,.056.163q.456.546.734.936a3.912,3.912,0,0,0-.261.619L.187,4.2a.193.193,0,0,0-.13.085A.267.267,0,0,0,0,4.447V5.954a.242.242,0,0,0,.057.159A.2.2,0,0,0,.2,6.19l1.238.2a4.158,4.158,0,0,0,.285.668c-.087.119-.214.285-.383.5s-.28.356-.334.431a.278.278,0,0,0-.057.155q0,.221,1.173,1.3a.266.266,0,0,0,.171.065.221.221,0,0,0,.163-.056l.961-.725a3.627,3.627,0,0,0,.611.252l.187,1.246a.213.213,0,0,0,.082.143.245.245,0,0,0,.163.061H5.97a.239.239,0,0,0,.245-.2A9.784,9.784,0,0,0,6.4,8.968a3.638,3.638,0,0,0,.627-.253l.937.734a.293.293,0,0,0,.171.056c.1,0,.317-.161.64-.484a8.51,8.51,0,0,0,.672-.729.21.21,0,0,0,.057-.155ZM6.688,6.688a2.011,2.011,0,0,1-1.475.61A2.084,2.084,0,0,1,3.128,5.213,2.084,2.084,0,0,1,5.213,3.128,2.083,2.083,0,0,1,7.3,5.213a2.011,2.011,0,0,1-.61,1.475Z"/></g></g></svg>