<svg xmlns="http://www.w3.org/2000/svg" viewBox="0 0 25.601 27.588"><defs><style>.cls-1{fill:#808285;}.cls-2{fill:#aa8dc2;}</style></defs><title>иконка_уведомл_2</title><g id="Слой_2" data-name="Слой 2"><g id="hobots.io"><path id="иконка" class="cls-1" d="M24.8,22.614c-1.731-1.5-3.332-3.61-3.332-8.9a5.7,5.7,0,0,0-11.4,0c0,5.291-1.6,7.4-3.331,8.9a2.321,2.321,0,0,0-.8,1.749.742.742,0,0,0,.742.742H12.63a3.222,3.222,0,0,0,6.272,0h5.957a.742.742,0,0,0,.742-.742A2.308,2.308,0,0,0,24.8,22.614Zm-7.463,2.493a1.736,1.736,0,0,1-3.142,0ZM23.7,23.624H7.833c2.6-2.311,3.714-5.286,3.714-9.906a4.219,4.219,0,0,1,8.438,0C19.985,18.335,21.1,21.309,23.7,23.624Z"/><circle class="cls-2" cx="7.883" cy="7.883" r="7.883"/></g></g></svg>