<svg xmlns="http://www.w3.org/2000/svg" viewBox="0 0 33.778 23.605"><defs><style>.cls-1{fill:#808285;}.cls-2{fill:#aa8dc2;}</style></defs><title>иконка_профиль</title><g id="Слой_2" data-name="Слой 2"><g id="hobots.io"><path id="иконка" class="cls-1" d="M3.321,20a12.381,12.381,0,1,0-.151-.165A.706.706,0,0,0,3.321,20ZM11.8,22.247a10.4,10.4,0,0,1-6.746-2.478c3.061-1.015,4.193-2.25,4.611-3.074a4.98,4.98,0,0,0,1.956.4h.158a4.99,4.99,0,0,0,2.1-.466c.391.823,1.5,2.1,4.652,3.142A10.347,10.347,0,0,1,11.8,22.247ZM7.987,9.621V9.579C8.152,6,10.787,5.723,11.6,5.723h.22c.8,0,3.444.281,3.609,3.856v.042c.007.034.343,3.341-1.2,5.077a3.172,3.172,0,0,1-2.491,1.037h-.041A3.185,3.185,0,0,1,9.2,14.7C7.651,12.976,7.98,9.655,7.987,9.621ZM11.8,1.359a10.438,10.438,0,0,1,7.843,17.333c-4.433-1.29-4.605-2.854-4.605-2.875v.034h-.047c.082-.082.164-.165.247-.254,1.887-2.12,1.571-5.75,1.537-6.107-.186-3.788-2.786-5.133-4.961-5.133H11.6C9.422,4.357,6.814,5.7,6.635,9.49c-.034.35-.343,3.98,1.538,6.107.109.124.226.241.343.35-.144.4-.872,1.661-4.557,2.738A10.434,10.434,0,0,1,11.8,1.359Z"/><path id="элемент_выпад._меню" data-name="элемент выпад. меню" class="cls-2" d="M31.968,13.753l1.761-2.879a.327.327,0,0,0-.279-.5H29.926a.327.327,0,0,0-.279.5l1.762,2.879A.328.328,0,0,0,31.968,13.753Z"/></g></g></svg>