<svg xmlns="http://www.w3.org/2000/svg" viewBox="0 0 20.555 18.027"><defs><style>.cls-1{fill:#796c9a;}</style></defs><title>иконка_чат</title><g id="Слой_2" data-name="Слой 2"><g id="hobots.io"><g id="иконка"><path class="cls-1" d="M18.878,0H1.677A1.679,1.679,0,0,0,0,1.677V11.734a1.679,1.679,0,0,0,1.677,1.677h.98v4.138a.478.478,0,0,0,.295.442.485.485,0,0,0,.183.036.477.477,0,0,0,.338-.14l4.476-4.476H18.878a1.679,1.679,0,0,0,1.677-1.677V1.677A1.679,1.679,0,0,0,18.878,0ZM19.6,11.734a.722.722,0,0,1-.721.721H7.751a.476.476,0,0,0-.321.124l0,0L7.41,12.6l-3.8,3.8V12.933a.285.285,0,0,0,0-.044.478.478,0,0,0-.476-.434H1.677a.721.721,0,0,1-.721-.721V1.677A.721.721,0,0,1,1.677.956h17.2a.722.722,0,0,1,.721.721V11.734Z"/><path class="cls-1" d="M4.2,4.447H6.985a.478.478,0,0,0,0-.956H4.2a.478.478,0,0,0,0,.956Z"/><path class="cls-1" d="M4.2,7.183h7.754a.478.478,0,1,0,0-.956H4.2a.478.478,0,0,0,0,.956Z"/><path class="cls-1" d="M16.356,3.491H9.776a.478.478,0,1,0,0,.956h6.58a.478.478,0,0,0,0-.956Z"/><path class="cls-1" d="M16.356,6.227h-1.73a.478.478,0,0,0,0,.956h1.73a.478.478,0,0,0,0-.956Z"/><path class="cls-1" d="M8.527,8.964H4.2a.478.478,0,0,0,0,.956H8.527a.478.478,0,1,0,0-.956Z"/><path class="cls-1" d="M16.356,8.964H11.067a.478.478,0,0,0,0,.956h5.289a.478.478,0,0,0,0-.956Z"/></g></g></g></svg>