<svg xmlns="http://www.w3.org/2000/svg" viewBox="0 0 11.38 11.323"><defs><style>.cls-1{fill:#aa8dc2;}</style></defs><title>иконка (5)</title><g id="Слой_2" data-name="Слой 2"><g id="hobots.io"><path id="иконка" class="cls-1" d="M10.916,8.445c-1-.866-1.928-2.089-1.928-5.147a3.3,3.3,0,0,0-6.6,0c0,3.061-.926,4.283-1.927,5.148A1.343,1.343,0,0,0,0,9.458a.43.43,0,0,0,.429.429H3.875a1.864,1.864,0,0,0,3.629,0H10.95a.43.43,0,0,0,.43-.429A1.337,1.337,0,0,0,10.916,8.445ZM6.6,9.887a1.005,1.005,0,0,1-1.819,0Zm3.681-.858H1.1C2.605,7.692,3.249,5.971,3.249,3.3a2.441,2.441,0,0,1,4.881,0C8.13,5.969,8.774,7.69,10.28,9.029Z"/></g></g></svg>