<svg xmlns="http://www.w3.org/2000/svg" viewBox="0 0 38.294 30.029"><defs><style>.cls-1{fill:#fff;}</style></defs><title>иконка_фак</title><g id="Слой_2" data-name="Слой 2"><g id="hobots.io"><path class="cls-1" d="M38.294,5.014A5.016,5.016,0,0,0,33.286,0H5.217A5.059,5.059,0,0,0,.125,5.014V12.93H0v1.678H.125V29.319a.736.736,0,0,0,.449.653.761.761,0,0,0,.781-.125L5.8,25.8a6.35,6.35,0,0,1,.6-.521l.128-.053a2.511,2.511,0,0,1,.4-.023c.08,0,.162,0,.237,0,.194,0,.428,0,.71,0H33.286a5.028,5.028,0,0,0,5.008-5.038ZM36.867,20.173a3.6,3.6,0,0,1-3.581,3.61H7.877c-.271,0-.494,0-.68-.005-1.2-.028-1.366.05-2.365.971-.033.03-.069.06-.1.091l-.051.043c-.054.043-.106.086-.155.13L1.554,27.7V5.014A3.629,3.629,0,0,1,5.217,1.428H33.286a3.545,3.545,0,0,1,3.581,3.586Z"/><path class="cls-1" d="M13.178,7.617H9.655a.7.7,0,0,0-.686.686v8.164a.6.6,0,1,0,1.19,0v-3.63h2.772a.576.576,0,0,0,.582-.582.59.59,0,0,0-.582-.582H10.159V8.781h3.019a.577.577,0,0,0,.595-.569A.6.6,0,0,0,13.178,7.617Z"/><path class="cls-1" d="M19.216,8.228c-.124-.385-.3-.741-.76-.741s-.653.424-.748.742l-2.535,8.02a.952.952,0,0,0-.029.218.6.6,0,0,0,.621.6.648.648,0,0,0,.566-.443l.529-1.753h3.179l.542,1.751a.637.637,0,0,0,.579.445.588.588,0,0,0,.621-.6.924.924,0,0,0-.03-.217Zm.478,5.473H17.218l1.238-4.074Z"/><path class="cls-1" d="M29.8,13.659V10.877c0-2.154-1.117-3.39-3.066-3.39s-3.065,1.236-3.065,3.39v2.782c0,1.852.961,3.132,2.514,3.355.1,1.391.828,2.22,1.955,2.22.555,0,1.129,0,1.129-.544a.539.539,0,0,0-.582-.556c-.036,0-.088,0-.147.006-.074,0-.159.007-.23.007-.628,0-.915-.344-.951-1.147C28.869,16.75,29.8,15.477,29.8,13.659Zm-4.941-2.782c0-1.5.614-2.226,1.875-2.226s1.875.728,1.875,2.226v2.782c0,.837-.243,2.239-1.875,2.239s-1.875-1.4-1.875-2.239Z"/></g></g></svg>