<svg xmlns="http://www.w3.org/2000/svg" viewBox="0 0 14.009 9.406"><defs><style>.cls-1{fill:#aa8dc2;}</style></defs><title>иконка (7)</title><g id="Слой_2" data-name="Слой 2"><g id="hobots.io"><g id="иконка"><path class="cls-1" d="M12.433,0H1.576A1.577,1.577,0,0,0,0,1.576V6.544A2.862,2.862,0,0,0,2.862,9.406h8.284a2.863,2.863,0,0,0,2.863-2.862V1.576A1.577,1.577,0,0,0,12.433,0Zm-.455,1L7.656,5.636a1.071,1.071,0,0,1-.26.16,1.05,1.05,0,0,1-.783,0,1.071,1.071,0,0,1-.26-.16L2.031,1Zm1.03,5.543A1.861,1.861,0,0,1,11.146,8.4H2.862A1.861,1.861,0,0,1,1,6.544V1.576l.084-.034L5.727,6.416a2.042,2.042,0,0,0,.513.309,2.046,2.046,0,0,0,1.528,0,2.029,2.029,0,0,0,.514-.309l4.642-4.874.084.034Z"/></g></g></g></svg>