<svg xmlns="http://www.w3.org/2000/svg" viewBox="0 0 33 33.007"><defs><style>.cls-1{fill:#fff;}</style></defs><title>иконка_боты</title><g id="Слой_2" data-name="Слой 2"><g id="hobots.io"><path class="cls-1" d="M32.974,14.844a2.938,2.938,0,0,0-.561-2.119,2.658,2.658,0,0,0-2.024-.944H17.211V7.689l.175-.04a3.876,3.876,0,1,0-4.76-3.769,3.85,3.85,0,0,0,3,3.769l.175.04v4.092H2.608a2.643,2.643,0,0,0-2.072,1,2.729,2.729,0,0,0-.5,2.056L2.864,30.858A2.6,2.6,0,0,0,5.43,33.007H27.587a2.6,2.6,0,0,0,2.566-2.149ZM14.031,3.88a2.475,2.475,0,1,1,2.474,2.474A2.477,2.477,0,0,1,14.031,3.88ZM28.757,30.611a1.184,1.184,0,0,1-1.175.991H5.424a1.186,1.186,0,0,1-1.176-.994L1.433,14.6A1.329,1.329,0,0,1,1.7,13.582a1.129,1.129,0,0,1,.913-.39H30.4a1.181,1.181,0,0,1,.958.387,1.281,1.281,0,0,1,.217,1.022Z"/><path class="cls-1" d="M8.868,15.319A3.879,3.879,0,1,0,12.747,19.2,3.883,3.883,0,0,0,8.868,15.319Zm0,6.348a2.474,2.474,0,1,1,2.475-2.474A2.477,2.477,0,0,1,8.873,21.667Z"/><path class="cls-1" d="M24.022,15.319A3.879,3.879,0,1,0,27.9,19.2,3.883,3.883,0,0,0,24.022,15.319Zm0,6.348A2.474,2.474,0,1,1,26.5,19.193,2.477,2.477,0,0,1,24.022,21.667Z"/><path class="cls-1" d="M10.781,27.177a.708.708,0,0,0,.412.908,15.288,15.288,0,0,0,5.312.883,15.165,15.165,0,0,0,5.315-.884.688.688,0,0,0,.39-.361.711.711,0,0,0,.019-.549.726.726,0,0,0-.913-.407,14.005,14.005,0,0,1-4.811.791,13.964,13.964,0,0,1-4.813-.792.707.707,0,0,0-.248-.046A.719.719,0,0,0,10.781,27.177Z"/></g></g></svg>