<svg xmlns="http://www.w3.org/2000/svg" viewBox="0 0 11.956 11.956"><defs><style>.cls-1{fill:#aa8dc2;}</style></defs><title>иконка (6)</title><g id="Слой_2" data-name="Слой 2"><g id="hobots.io"><g id="иконка"><path class="cls-1" d="M5.978,0a5.978,5.978,0,1,0,5.978,5.978A5.984,5.984,0,0,0,5.978,0Zm4.964,5.978A4.964,4.964,0,1,1,5.978,1.014,4.97,4.97,0,0,1,10.942,5.978Z"/><path class="cls-1" d="M5.966,7.58a.48.48,0,0,0,.465-.454l.083-3.74a.551.551,0,0,0-.548-.524.544.544,0,0,0-.549.526L5.5,7.123A.456.456,0,0,0,5.966,7.58Z"/><path class="cls-1" d="M5.983,7.812a.651.651,0,0,0-.666.633.662.662,0,1,0,.666-.633Z"/></g></g></g></svg>