<svg xmlns="http://www.w3.org/2000/svg" viewBox="0 0 12.365 10.094"><defs><style>.cls-1{fill:#808285;}</style></defs><title>иконка (4)</title><g id="Слой_2" data-name="Слой 2"><g id="hobots.io"><g id="иконка"><path class="cls-1" d="M5.047,9.337a.208.208,0,0,1-.016-.107c.006-.029-.013-.052-.055-.071s-.063-.033-.063-.043-.03-.019-.091-.024l-.091-.007H2.271a1.215,1.215,0,0,1-.891-.371,1.214,1.214,0,0,1-.37-.891V2.271a1.214,1.214,0,0,1,.37-.891,1.215,1.215,0,0,1,.891-.371H4.8A.237.237,0,0,0,4.956.958.259.259,0,0,0,5.035.8,1.4,1.4,0,0,0,5.059.619c0-.055,0-.125,0-.209S5.047.273,5.047.252A.242.242,0,0,0,4.972.075.242.242,0,0,0,4.8,0H2.271a2.191,2.191,0,0,0-1.6.666A2.191,2.191,0,0,0,0,2.271V7.823a2.185,2.185,0,0,0,.666,1.6,2.188,2.188,0,0,0,1.605.667H4.8a.237.237,0,0,0,.161-.051.259.259,0,0,0,.079-.154A1.254,1.254,0,0,0,5.059,9.7c0-.056,0-.125,0-.209s-.008-.137-.008-.158Z"/><path class="cls-1" d="M12.215,4.692,7.925.4a.5.5,0,0,0-.71,0,.489.489,0,0,0-.149.355V3.028H3.533a.512.512,0,0,0-.5.5V6.561a.512.512,0,0,0,.5.5H7.066V9.337a.5.5,0,0,0,.859.355l4.29-4.29a.5.5,0,0,0,0-.71Z"/></g></g></g></svg>