<svg xmlns="http://www.w3.org/2000/svg" viewBox="0 0 36.086 41.304"><defs><style>.cls-1{fill:#fff;}</style></defs><title>иконка_биржа</title><g id="Слой_2" data-name="Слой 2"><g id="hobots.io"><path class="cls-1" d="M15.093,35.347a2.979,2.979,0,1,0,2.978,2.978A2.981,2.981,0,0,0,15.093,35.347Zm0,4.635a1.657,1.657,0,1,1,1.657-1.657A1.658,1.658,0,0,1,15.093,39.982Z"/><path class="cls-1" d="M26.371,35.347a2.979,2.979,0,1,0,2.979,2.978A2.981,2.981,0,0,0,26.371,35.347Zm0,4.635a1.657,1.657,0,1,1,1.657-1.657A1.659,1.659,0,0,1,26.371,39.982Z"/><path class="cls-1" d="M27.163,18.418H14.3a.661.661,0,0,0,0,1.322H27.163a.661.661,0,1,0,0-1.322Z"/><path class="cls-1" d="M26.463,23.08H15A.661.661,0,1,0,15,24.4H26.463a.661.661,0,1,0,0-1.321Z"/><path class="cls-1" d="M36.054,15.63a1.558,1.558,0,0,0-1.527-1.872H6.374l-.6-2.931a1.56,1.56,0,0,0-.906-1.115L.924,8A.661.661,0,1,0,.4,9.215l4.053,1.759,4.368,21.2a1.564,1.564,0,0,0,1.526,1.244H31.85a.661.661,0,1,0,0-1.322h-21.7l-.626-3.038H32.017a1.564,1.564,0,0,0,1.526-1.244ZM32.21,27.741H9.254L6.646,15.079H34.818Z"/><path class="cls-1" d="M29.372,0H12.09a.627.627,0,0,0-.627.627V14.452a.628.628,0,0,0,.627.628H29.372A.628.628,0,0,0,30,14.452V.627A.627.627,0,0,0,29.372,0Zm-.627,13.825H12.717V1.254H28.745Z"/><circle class="cls-1" cx="17.275" cy="5.812" r="1.491"/><circle class="cls-1" cx="24.187" cy="5.812" r="1.491"/><path class="cls-1" d="M25.915,10.369H15.547a.627.627,0,1,0,0,1.254H25.915a.627.627,0,1,0,0-1.254Z"/></g></g></svg>