<svg xmlns="http://www.w3.org/2000/svg" viewBox="0 0 9.253 10.515"><defs><style>.cls-1{fill:#fff;}</style></defs><title>иконка</title><g id="Слой_2" data-name="Слой 2"><g id="hobots.io"><g id="иконка"><path class="cls-1" d="M4.627,5.047a2.431,2.431,0,0,0,1.784-.739A2.431,2.431,0,0,0,7.15,2.524,2.432,2.432,0,0,0,6.411.739,2.435,2.435,0,0,0,4.627,0,2.436,2.436,0,0,0,2.842.739,2.432,2.432,0,0,0,2.1,2.524a2.431,2.431,0,0,0,.739,1.784,2.432,2.432,0,0,0,1.785.739Z"/><path class="cls-1" d="M9.23,8.133a6.619,6.619,0,0,0-.092-.717A5.6,5.6,0,0,0,8.964,6.7a3.322,3.322,0,0,0-.283-.64,2.3,2.3,0,0,0-.407-.533,1.709,1.709,0,0,0-.562-.351,1.971,1.971,0,0,0-.733-.132.811.811,0,0,0-.276.141q-.216.143-.489.316a3.115,3.115,0,0,1-.71.315,2.782,2.782,0,0,1-1.755,0,3.115,3.115,0,0,1-.71-.315q-.273-.174-.489-.316a.811.811,0,0,0-.276-.141,1.967,1.967,0,0,0-.733.132,1.7,1.7,0,0,0-.562.351,2.3,2.3,0,0,0-.407.533,3.322,3.322,0,0,0-.283.64,5.6,5.6,0,0,0-.174.713,6.619,6.619,0,0,0-.092.717C.007,8.354,0,8.581,0,8.813a1.637,1.637,0,0,0,.48,1.245,1.771,1.771,0,0,0,1.275.457H7.5a1.773,1.773,0,0,0,1.275-.457,1.64,1.64,0,0,0,.479-1.245q0-.348-.023-.68Z"/></g></g></g></svg>