<svg xmlns="http://www.w3.org/2000/svg" viewBox="0 0 38.35 25.189"><defs><style>.cls-1{fill:#fff;}</style></defs><title>иконка_ико</title><g id="Слой_2" data-name="Слой 2"><g id="hobots.io"><path class="cls-1" d="M38.35,5.369A5.375,5.375,0,0,0,32.981,0H5.369A5.374,5.374,0,0,0,0,5.369V19.821a5.374,5.374,0,0,0,5.369,5.368H32.981a5.375,5.375,0,0,0,5.369-5.368ZM37,19.821a4.024,4.024,0,0,1-4.019,4.019H5.369A4.023,4.023,0,0,1,1.35,19.821V5.369A4.022,4.022,0,0,1,5.369,1.35H32.981A4.023,4.023,0,0,1,37,5.369Z"/><path class="cls-1" d="M10.418,7.457a.61.61,0,0,0-.624-.578.6.6,0,0,0-.624.578v9.572a.61.61,0,0,0,.624.577.618.618,0,0,0,.624-.577Z"/><path class="cls-1" d="M19.29,15.818a.557.557,0,0,0-.37.132l-.03.02-.1.063-.076.047a2.631,2.631,0,0,1-1.522.448c-1.554,0-2.309-.886-2.309-2.711v-3.18c0-1.824.755-2.71,2.309-2.71a2.541,2.541,0,0,1,1.535.473l.063.037c.048.029.09.057.129.082a.566.566,0,0,0,.373.133.542.542,0,0,0,.563-.516c0-.646-1.332-1.257-2.74-1.257-2.244,0-3.48,1.335-3.48,3.758v3.18c0,2.424,1.236,3.759,3.48,3.759,1.408,0,2.74-.611,2.74-1.257A.536.536,0,0,0,19.29,15.818Z"/><path class="cls-1" d="M29.534,10.637c0-1.13-.346-3.758-3.557-3.758s-3.558,2.628-3.558,3.758v3.18c0,1.832.935,3.789,3.558,3.789s3.557-1.957,3.557-3.789Zm-1.248,3.18c0,1.684-.842,2.65-2.309,2.65s-2.31-.966-2.31-2.65v-3.18c0-1.723.8-2.634,2.31-2.634s2.309.911,2.309,2.634Z"/></g></g></svg>