<svg xmlns="http://www.w3.org/2000/svg" viewBox="0 0 33 33"><defs><style>.cls-1{fill:#fff;}</style></defs><title>иконка_тулс</title><g id="Слой_2" data-name="Слой 2"><g id="hobots.io"><path class="cls-1" d="M4.125,33A4.028,4.028,0,0,1,1.29,31.827l-.128-.133A3.968,3.968,0,0,1,0,28.875a4.03,4.03,0,0,1,1.173-2.834l9.485-8.559a.686.686,0,0,1,.46-.177h0a2.05,2.05,0,0,0,1.456-.6.688.688,0,0,1,.972.974,3.4,3.4,0,0,1-2.153,1L2.12,27.038a2.632,2.632,0,0,0,.025,3.7l.129.135a2.718,2.718,0,0,0,3.709-.011l8.466-9.139a3.411,3.411,0,0,1,1-2.149.688.688,0,1,1,.973.974,2.04,2.04,0,0,0-.6,1.457.7.7,0,0,1-.189.473c-.137.146-8.651,9.337-8.651,9.337A3.993,3.993,0,0,1,4.125,33Z"/><path class="cls-1" d="M19.594,16.157a.687.687,0,0,1-.487-1.173l7.906-7.907a.691.691,0,0,1,.487-.2h1.638L31.475,2.2,30.8,1.525,26.125,3.863V5.5a.692.692,0,0,1-.2.487l-7.906,7.906a.687.687,0,0,1-.972-.972l7.7-7.7V3.438a.688.688,0,0,1,.38-.615l5.5-2.75A.686.686,0,0,1,31.423.2L32.8,1.577a.689.689,0,0,1,.129.794l-2.75,5.5a.689.689,0,0,1-.614.379H27.785l-7.706,7.706A.685.685,0,0,1,19.594,16.157Z"/><path class="cls-1" d="M30.25,33A3.576,3.576,0,0,1,27.7,31.944l-17.411-17.9a2.059,2.059,0,0,0-2.011-.553,5.958,5.958,0,0,1-1.4.257,6.91,6.91,0,0,1-5-2.158A6.833,6.833,0,0,1,.012,6.461.688.688,0,0,1,.37,5.9a.736.736,0,0,1,.711,0l3.76,2.256A3.735,3.735,0,0,0,6.856,5.191l-4.2-2.522a.684.684,0,0,1-.078-1.123A6.814,6.814,0,0,1,6.729,0,6.438,6.438,0,0,1,11.4,1.982a7.118,7.118,0,0,1,1.971,6.406A2.075,2.075,0,0,0,13.96,10.2l17.98,17.49A3.642,3.642,0,0,1,33,30.249,2.752,2.752,0,0,1,30.25,33ZM8.814,12.048a3.435,3.435,0,0,1,2.462,1.04L28.681,30.979a2.2,2.2,0,0,0,1.569.646,1.376,1.376,0,0,0,1.375-1.375,2.211,2.211,0,0,0-.653-1.575L13,11.191a3.456,3.456,0,0,1-.992-3.016,5.721,5.721,0,0,0-1.583-5.218,4.955,4.955,0,0,0-3.666-1.58,5.347,5.347,0,0,0-2.472.669l3.63,2.177a.687.687,0,0,1,.334.59,5.11,5.11,0,0,1-2.839,4.6l-.29.144a.694.694,0,0,1-.662-.024L1.437,7.714a5.5,5.5,0,0,0,5.438,4.661,4.758,4.758,0,0,0,1.049-.21A3.47,3.47,0,0,1,8.814,12.048Z"/></g></g></svg>