<svg xmlns="http://www.w3.org/2000/svg" viewBox="0 0 35 35"><defs><style>.cls-1{fill:#fff;}</style></defs><title>иконка_статс</title><g id="Слой_2" data-name="Слой 2"><g id="hobots.io"><path class="cls-1" d="M34.271,35H.729a.729.729,0,1,1,0-1.458H34.271a.729.729,0,0,1,0,1.458Z"/><path class="cls-1" d="M6.562,35H2.188a.73.73,0,0,1-.73-.729v-8.75a.729.729,0,0,1,.73-.729H6.562a.729.729,0,0,1,.73.729v8.75A.73.73,0,0,1,6.562,35ZM2.917,33.542H5.833V26.25H2.917Z"/><path class="cls-1" d="M15.312,35H10.938a.73.73,0,0,1-.73-.729V18.229a.73.73,0,0,1,.73-.729h4.374a.73.73,0,0,1,.73.729V34.271A.73.73,0,0,1,15.312,35Zm-3.645-1.458h2.916V18.958H11.667Z"/><path class="cls-1" d="M24.062,35H19.687a.73.73,0,0,1-.729-.729V21.146a.729.729,0,0,1,.729-.729h4.375a.729.729,0,0,1,.73.729V34.271A.73.73,0,0,1,24.062,35Zm-3.645-1.458h2.916V21.875H20.417Z"/><path class="cls-1" d="M32.812,35H28.437a.73.73,0,0,1-.729-.729V12.4a.729.729,0,0,1,.729-.729h4.375a.729.729,0,0,1,.73.729V34.271A.73.73,0,0,1,32.812,35Zm-3.645-1.458h2.916V13.125H29.167Z"/><path class="cls-1" d="M4.375,18.958a2.917,2.917,0,1,1,2.917-2.916A2.919,2.919,0,0,1,4.375,18.958Zm0-4.375a1.459,1.459,0,1,0,1.458,1.459A1.46,1.46,0,0,0,4.375,14.583Z"/><path class="cls-1" d="M13.125,11.667A2.917,2.917,0,1,1,16.042,8.75,2.92,2.92,0,0,1,13.125,11.667Zm0-4.375A1.458,1.458,0,1,0,14.583,8.75,1.459,1.459,0,0,0,13.125,7.292Z"/><path class="cls-1" d="M21.875,14.583a2.917,2.917,0,1,1,2.917-2.916A2.919,2.919,0,0,1,21.875,14.583Zm0-4.375a1.459,1.459,0,1,0,1.458,1.459A1.46,1.46,0,0,0,21.875,10.208Z"/><path class="cls-1" d="M30.625,5.833a2.917,2.917,0,1,1,2.917-2.916A2.919,2.919,0,0,1,30.625,5.833Zm0-4.375a1.459,1.459,0,1,0,1.458,1.459A1.46,1.46,0,0,0,30.625,1.458Z"/><path class="cls-1" d="M23.422,10.849a.729.729,0,0,1-.516-1.244l5.658-5.659A.729.729,0,1,1,29.6,4.977l-5.658,5.659A.726.726,0,0,1,23.422,10.849Z"/><path class="cls-1" d="M19.912,11.414a.73.73,0,0,1-.2-.027l-4.684-1.336a.729.729,0,0,1,.4-1.4l4.684,1.336a.729.729,0,0,1-.2,1.43Z"/><path class="cls-1" d="M5.921,15.225a.729.729,0,0,1-.455-1.3l5.5-4.384a.729.729,0,0,1,.908,1.142l-5.5,4.383A.728.728,0,0,1,5.921,15.225Z"/></g></g></svg>