<svg xmlns="http://www.w3.org/2000/svg" viewBox="0 0 225.995 64.378"><defs><style>.cls-1{fill:#cdcccc;}.cls-2{fill:#818181;}.cls-3{fill:#6d6e71;opacity:0.5;}.cls-4{fill:#aa8dc2;}.cls-5{fill:#fff;}.cls-6{fill:#333;}.cls-7{fill:#9987aa;}.cls-8{fill:#796c9a;}.cls-9{fill:#4e4e4e;}</style></defs><title>лого</title><g id="Слой_2" data-name="Слой 2"><g id="hobots.io"><g id="лого"><path class="cls-1" d="M73.442,55.474a3.149,3.149,0,0,0,3.022-2.314l.975-2.665a2.446,2.446,0,0,0-1.431-3.129l-.8-.3-1.8,4L69.8,49.5l1.455-3.688-1.105-.469a2.447,2.447,0,0,0-3.223,1.335l-.936,2.309a3.151,3.151,0,0,0,.907,3.689"/><path class="cls-2" d="M73.445,56.052,73.439,54.9a2.582,2.582,0,0,0,2.468-1.89l.015-.045L76.9,50.3A1.876,1.876,0,0,0,75.8,47.906l-.289-.11-1.807,4.029L69.059,49.8l1.453-3.683-.587-.249a1.87,1.87,0,0,0-2.462,1.019l-.935,2.31a2.582,2.582,0,0,0,.735,3.023l-.728.9a3.739,3.739,0,0,1-1.073-4.365l.931-2.3a3.024,3.024,0,0,1,3.983-1.649L72,45.5l-1.458,3.693L73.12,50.31l1.785-3.979,1.307.495a3.034,3.034,0,0,1,1.769,3.868l-.967,2.643A3.74,3.74,0,0,1,73.445,56.052Z"/><path class="cls-1" d="M66.986,52.566c-1.235,2.773-3.757,5.525-8.749,3.007C53.748,53.308,54,43.736,54,43.736H46.919c-.693,12.242,5.858,21.35,17.093,19.844,5.179-.694,8.1-4.692,9.4-8.454A8.571,8.571,0,0,0,66.986,52.566Z"/><path class="cls-3" d="M51.108,44.99A30.809,30.809,0,0,0,52.2,52.132c.73,2,2.944,5.132,4.911,5.878,3.576,1.356,6.354.935,8.27-.4a10.579,10.579,0,0,0,3.46-4.769L66.677,52.6c-1.469,4.062-5.092,5.467-8.9,2.694-3.533-2.57-3.527-6.6-3.894-10.3-.174-1.762-2.947-1.779-2.771,0Z"/><path class="cls-2" d="M61.621,64.378a13.911,13.911,0,0,1-10.387-4.332c-3.535-3.74-5.272-9.5-4.892-16.228l.031-.544H54.6l-.015.592c0,.091-.192,9.175,3.917,11.248a7.492,7.492,0,0,0,3.314.919c1.99,0,3.554-1.246,4.647-3.7l.14-.314.343-.026c.2-.016.407-.024.609-.024a8.9,8.9,0,0,1,6.1,2.627c.054.05.093.087.119.108l.314.255-.128.386c-.824,2.379-3.436,8-9.871,8.866A18.657,18.657,0,0,1,61.621,64.378ZM47.469,44.429c-.242,6.236,1.384,11.418,4.6,14.825,2.94,3.111,7.1,4.45,11.862,3.811,5.5-.738,7.925-5.407,8.8-7.742a7.626,7.626,0,0,0-5.375-2.2c-1.28,2.659-3.194,4.062-5.553,4.062a8.616,8.616,0,0,1-3.834-1.041c-4.137-2.087-4.529-9.638-4.554-11.717Z"/><rect class="cls-4" x="43.951" y="39.578" width="12.704" height="4.158" rx="2.058" ry="2.058"/><path class="cls-2" d="M57.348,41.562A2.636,2.636,0,0,1,54.712,44.2H46.124a2.636,2.636,0,0,1-2.635-2.636v-.041a2.636,2.636,0,0,1,2.635-2.636h8.588a2.636,2.636,0,0,1,2.636,2.636Zm-1.155-.041a1.481,1.481,0,0,0-1.481-1.481H46.124a1.481,1.481,0,0,0-1.48,1.481v.041a1.481,1.481,0,0,0,1.48,1.481h8.588a1.481,1.481,0,0,0,1.481-1.481Z"/><rect class="cls-4" x="38.869" y="36.345" width="23.098" height="4.158" rx="2.058" ry="2.058"/><path class="cls-2" d="M62.66,38.329a2.635,2.635,0,0,1-2.635,2.635H41.043a2.636,2.636,0,0,1-2.636-2.635v-.042a2.636,2.636,0,0,1,2.636-2.635H60.025a2.635,2.635,0,0,1,2.635,2.635Zm-1.155-.042a1.48,1.48,0,0,0-1.48-1.48H41.043a1.48,1.48,0,0,0-1.481,1.48v.042a1.481,1.481,0,0,0,1.481,1.48H60.025a1.48,1.48,0,0,0,1.48-1.48Z"/><rect class="cls-4" x="34.711" y="33.111" width="31.414" height="4.158" rx="2.058" ry="2.058"/><path class="cls-2" d="M66.818,35.1a2.636,2.636,0,0,1-2.636,2.635h-27.3A2.636,2.636,0,0,1,34.249,35.1v-.042a2.636,2.636,0,0,1,2.636-2.635h27.3a2.636,2.636,0,0,1,2.636,2.635Zm-1.155-.042a1.481,1.481,0,0,0-1.481-1.48h-27.3a1.481,1.481,0,0,0-1.481,1.48V35.1a1.481,1.481,0,0,0,1.481,1.481h27.3A1.481,1.481,0,0,0,65.663,35.1Z"/><path class="cls-4" d="M70.745,11.288v19.98A2.519,2.519,0,0,1,68.323,33.8H32.752a2.467,2.467,0,0,1-1.568-.628,2.54,2.54,0,0,1-.861-1.908V11.288a6.057,6.057,0,0,1,1.688-4.2,6.158,6.158,0,0,1,4.552-1.922H64.512A6.141,6.141,0,0,1,70.745,11.288Z"/><circle class="cls-5" cx="50.153" cy="19.519" r="8.546"/><circle class="cls-6" cx="50.32" cy="19.603" r="4.776"/><circle class="cls-5" cx="52.704" cy="16.885" r="1.378"/><line class="cls-1" x1="46.973" y1="48.035" x2="54.081" y2="47.545"/><rect class="cls-2" x="46.965" y="47.213" width="7.125" height="1.155" transform="translate(-3.166 3.587) rotate(-3.942)"/><line class="cls-1" x1="47.926" y1="53.031" x2="54.852" y2="50.657"/><rect class="cls-2" x="47.728" y="51.266" width="7.322" height="1.155" transform="translate(-14.032 19.459) rotate(-18.916)"/><line class="cls-1" x1="50.32" y1="58.01" x2="56.263" y2="53.825"/><rect class="cls-2" x="49.657" y="55.34" width="7.269" height="1.155" transform="translate(-22.476 40.885) rotate(-35.155)"/><line class="cls-1" x1="55.096" y1="62.267" x2="58.237" y2="55.629"/><rect class="cls-2" x="52.995" y="58.371" width="7.343" height="1.155" transform="translate(-20.855 84.955) rotate(-64.676)"/><line class="cls-1" x1="61.158" y1="63.792" x2="61.013" y2="56.553"/><rect class="cls-2" x="60.508" y="56.553" width="1.155" height="7.24" transform="translate(-1.195 1.238) rotate(-1.15)"/><line class="cls-1" x1="67.168" y1="62.267" x2="63.947" y2="56.117"/><rect class="cls-2" x="64.98" y="55.721" width="1.155" height="6.942" transform="translate(-19.981 37.177) rotate(-27.646)"/><line class="cls-1" x1="71.662" y1="58.01" x2="65.735" y2="54.647"/><rect class="cls-2" x="68.121" y="52.921" width="1.155" height="6.815" transform="translate(-14.197 88.275) rotate(-60.425)"/><circle class="cls-2" cx="68.136" cy="48.598" r="0.466"/><circle class="cls-2" cx="75.296" cy="51.601" r="0.466"/><path class="cls-7" d="M70.919,13.8c.057-6.077-2.549-7.647-3.96-8.159-1.285-.881-7.461-.5-7.461-.5,0,.552,5.405.678,6.627,9.1a46.993,46.993,0,0,1-.727,13c-1.224,4.359-5.114,6.537-3.431,6.563,6.915.107,8.778,0,8.778-2C70.745,29.979,71.4,15.279,70.919,13.8Z"/><path class="cls-2" d="M68.323,34.266H32.752a2.858,2.858,0,0,1-1.884-.707,2.936,2.936,0,0,1-1.007-2.291V11.288a6.728,6.728,0,0,1,6.7-6.819H64.512a6.88,6.88,0,0,1,6.926,6.819v19.98A3.1,3.1,0,0,1,68.323,34.266ZM36.563,5.624a5.486,5.486,0,0,0-4.072,1.8,5.555,5.555,0,0,0-1.475,3.868v19.98a1.792,1.792,0,0,0,.6,1.409,1.679,1.679,0,0,0,1.137.434H68.323a1.952,1.952,0,0,0,1.96-1.843V11.288a5.737,5.737,0,0,0-5.771-5.664Z"/><circle class="cls-4" cx="94.861" cy="14.38" r="1.517"/><path class="cls-2" d="M94.861,16.359A1.979,1.979,0,1,1,96.84,14.38,1.981,1.981,0,0,1,94.861,16.359Zm0-3.034a1.055,1.055,0,1,0,1.055,1.055A1.057,1.057,0,0,0,94.861,13.325Z"/><circle class="cls-4" cx="99.088" cy="1.979" r="1.517"/><path class="cls-2" d="M99.088,3.959a1.98,1.98,0,1,1,1.979-1.98A1.982,1.982,0,0,1,99.088,3.959Zm0-3.035a1.056,1.056,0,1,0,1.055,1.055A1.056,1.056,0,0,0,99.088.924Z"/><circle class="cls-4" cx="77.078" cy="6.2" r="1.517"/><path class="cls-2" d="M77.078,8.18A1.98,1.98,0,1,1,79.057,6.2,1.982,1.982,0,0,1,77.078,8.18Zm0-3.035A1.056,1.056,0,1,0,78.133,6.2,1.057,1.057,0,0,0,77.078,5.145Z"/><circle class="cls-4" cx="84.433" cy="24.242" r="1.517"/><path class="cls-2" d="M84.433,26.221a1.98,1.98,0,1,1,1.979-1.98A1.982,1.982,0,0,1,84.433,26.221Zm0-3.035a1.056,1.056,0,1,0,1.055,1.055A1.057,1.057,0,0,0,84.433,23.186Z"/><circle class="cls-4" cx="88.378" cy="29.704" r="1.517"/><path class="cls-2" d="M88.378,31.684a1.98,1.98,0,1,1,1.98-1.98A1.982,1.982,0,0,1,88.378,31.684Zm0-3.035A1.056,1.056,0,1,0,89.434,29.7,1.057,1.057,0,0,0,88.378,28.649Z"/><circle class="cls-4" cx="85.766" cy="39.396" r="1.517"/><path class="cls-2" d="M85.766,41.375a1.979,1.979,0,1,1,1.98-1.979A1.982,1.982,0,0,1,85.766,41.375Zm0-3.034A1.055,1.055,0,1,0,86.822,39.4,1.056,1.056,0,0,0,85.766,38.341Z"/><circle class="cls-4" cx="85.251" cy="3.382" r="1.517"/><path class="cls-2" d="M85.251,5.361A1.979,1.979,0,1,1,87.23,3.382,1.982,1.982,0,0,1,85.251,5.361Zm0-3.034a1.055,1.055,0,1,0,1.055,1.055A1.056,1.056,0,0,0,85.251,2.327Z"/><polygon class="cls-2" points="78.303 10.937 70.92 10.937 70.92 9.782 77.826 9.782 83.493 4.193 84.308 4.982 78.303 10.937"/><line class="cls-4" x1="77.005" y1="10.475" x2="77.005" y2="7.703"/><rect class="cls-2" x="76.543" y="7.703" width="1.155" height="2.772"/><polygon class="cls-2" points="80.306 15.719 70.92 15.719 70.92 14.564 79.823 14.564 84.831 9.483 90.535 9.483 97.693 2.408 98.508 3.198 91.013 10.638 85.314 10.638 80.306 15.719"/><polygon class="cls-2" points="83.038 23.815 79.826 20.567 70.92 20.567 70.92 19.412 80.302 19.412 83.852 22.967 83.038 23.815"/><polygon class="cls-2" points="84.411 38.868 75.758 30.181 70.92 30.181 70.92 29.026 76.236 29.026 85.227 38.022 84.411 38.868"/><polygon class="cls-2" points="87.089 30.478 82.921 30.478 77.852 25.396 70.92 25.396 70.92 24.242 78.331 24.242 83.4 29.323 87.089 29.323 87.089 30.478"/><rect class="cls-2" x="91.875" y="9.507" width="0.924" height="4.421" transform="translate(18.759 68.724) rotate(-45)"/><circle class="cls-4" cx="6.207" cy="14.38" r="1.517"/><path class="cls-2" d="M4.228,14.38a1.979,1.979,0,1,1,1.979,1.979A1.981,1.981,0,0,1,4.228,14.38Zm.924,0a1.055,1.055,0,1,0,1.055-1.055A1.056,1.056,0,0,0,5.152,14.38Z"/><circle class="cls-4" cx="1.979" cy="1.979" r="1.517"/><path class="cls-2" d="M0,1.979a1.98,1.98,0,1,1,1.979,1.98A1.982,1.982,0,0,1,0,1.979Zm.924,0A1.056,1.056,0,1,0,1.979.924,1.057,1.057,0,0,0,.924,1.979Z"/><circle class="cls-4" cx="23.99" cy="6.2" r="1.517"/><path class="cls-2" d="M22.01,6.2a1.98,1.98,0,1,1,1.98,1.98A1.982,1.982,0,0,1,22.01,6.2Zm.924,0A1.056,1.056,0,1,0,23.99,5.145,1.058,1.058,0,0,0,22.934,6.2Z"/><circle class="cls-4" cx="16.635" cy="24.242" r="1.517"/><path class="cls-2" d="M14.655,24.241a1.98,1.98,0,1,1,1.98,1.98A1.982,1.982,0,0,1,14.655,24.241Zm.924,0a1.056,1.056,0,1,0,1.056-1.055A1.058,1.058,0,0,0,15.579,24.241Z"/><circle class="cls-4" cx="12.689" cy="29.704" r="1.517"/><path class="cls-2" d="M10.71,29.7a1.979,1.979,0,1,1,1.979,1.98A1.982,1.982,0,0,1,10.71,29.7Zm.924,0a1.055,1.055,0,1,0,1.055-1.055A1.057,1.057,0,0,0,11.634,29.7Z"/><circle class="cls-4" cx="15.301" cy="39.396" r="1.517"/><path class="cls-2" d="M13.322,39.4A1.979,1.979,0,1,1,15.3,41.375,1.982,1.982,0,0,1,13.322,39.4Zm.924,0A1.055,1.055,0,1,0,15.3,38.341,1.056,1.056,0,0,0,14.246,39.4Z"/><circle class="cls-4" cx="15.816" cy="3.382" r="1.517"/><path class="cls-2" d="M13.837,3.382a1.98,1.98,0,1,1,1.979,1.979A1.982,1.982,0,0,1,13.837,3.382Zm.924,0a1.056,1.056,0,1,0,1.055-1.055A1.056,1.056,0,0,0,14.761,3.382Z"/><polygon class="cls-2" points="22.765 10.937 30.147 10.937 30.147 9.782 23.242 9.782 17.574 4.193 16.759 4.982 22.765 10.937"/><line class="cls-4" x1="24.063" y1="10.475" x2="24.063" y2="7.703"/><rect class="cls-2" x="23.37" y="7.703" width="1.155" height="2.772"/><polygon class="cls-2" points="20.762 15.719 30.147 15.719 30.147 14.564 21.245 14.564 16.237 9.483 10.532 9.483 3.374 2.408 2.559 3.198 10.055 10.638 15.754 10.638 20.762 15.719"/><polygon class="cls-2" points="18.029 23.815 21.241 20.567 30.147 20.567 30.147 19.412 20.765 19.412 17.215 22.967 18.029 23.815"/><polygon class="cls-2" points="16.657 38.868 25.309 30.181 30.147 30.181 30.147 29.026 24.831 29.026 15.841 38.022 16.657 38.868"/><polygon class="cls-2" points="13.978 30.478 18.147 30.478 23.216 25.396 30.147 25.396 30.147 24.242 22.736 24.242 17.668 29.323 13.978 29.323 13.978 30.478"/><rect class="cls-2" x="6.519" y="11.256" width="4.421" height="0.924" transform="translate(-5.729 9.605) rotate(-45)"/><path class="cls-8" d="M126.436,42.705a1.739,1.739,0,0,1-1.714-1.652V33.009h-7.576v8.044a1.718,1.718,0,0,1-1.715,1.652,1.7,1.7,0,0,1-1.714-1.652v-19.3a1.672,1.672,0,0,1,1.714-1.622,1.693,1.693,0,0,1,1.715,1.622V29.8h7.576V21.755a1.717,1.717,0,0,1,3.429,0v19.3A1.718,1.718,0,0,1,126.436,42.705Z"/><path class="cls-8" d="M131.708,36.969V32.043c0-3.211,2.182-5.674,6.3-5.674s6.3,2.463,6.3,5.674v4.926c0,3.179-2.183,5.674-6.3,5.674S131.708,40.148,131.708,36.969Zm9.228,0V32.012c0-1.653-1-2.681-2.931-2.681s-2.93,1.028-2.93,2.681v4.957c0,1.683,1,2.712,2.93,2.712S140.936,38.652,140.936,36.969Z"/><path class="cls-9" d="M148.171,20.539a.992.992,0,0,1,1.029-1,.965.965,0,0,1,1,1v7.327a7.547,7.547,0,0,1,4.552-1.528c3.46,0,4.707,2.089,4.707,4.77v6.048c0,3.086-1.87,5.456-5.611,5.456-3.617,0-5.674-2.12-5.674-4.8ZM150.2,37.811c0,1.839,1.4,2.961,3.648,2.961,2.462,0,3.585-1.371,3.585-3.616V31.108c0-1.933-1-3.086-3.305-3.086A5.136,5.136,0,0,0,150.2,29.8Z"/><path class="cls-9" d="M162.389,37.156V31.794c0-3.087,2.026-5.488,5.767-5.488,3.773,0,5.768,2.4,5.768,5.488v5.362c0,3.086-2,5.456-5.768,5.456C164.415,42.612,162.389,40.242,162.389,37.156Zm9.509,0V31.762c0-2.245-1.248-3.648-3.742-3.648-2.463,0-3.741,1.4-3.741,3.648v5.394c0,2.245,1.278,3.616,3.741,3.616C170.65,40.772,171.9,39.4,171.9,37.156Z"/><path class="cls-9" d="M177.823,22.659a1,1,0,1,1,2,0v4.677h3.617a.92.92,0,0,1,.9.966.906.906,0,0,1-.9.9h-3.617v6.672c0,3.46.374,4.739,2.9,4.739.218,0,.405-.032.623-.032.592,0,1.4.094,1.4.935,0,.873-.811.967-1.559.967-4.3,0-5.362-2.12-5.362-6.392Z"/><path class="cls-9" d="M192.508,26.338c1.59,0,4.021.374,4.021,1.559a.884.884,0,0,1-.9.9,1.147,1.147,0,0,1-.467-.124,5.134,5.134,0,0,0-2.557-.623c-2.119,0-3.086.872-3.086,2.525,0,1.122.436,1.683,1.653,2.338C193.63,34.131,197,34.444,197,38.184c0,2.744-1.746,4.428-5.144,4.428-1.59,0-4.52-.312-4.52-1.591a.945.945,0,0,1,.966-.935.463.463,0,0,1,.187.031,8.494,8.494,0,0,0,3.367.78c1.9,0,3.18-.78,3.18-2.619A2.312,2.312,0,0,0,193.755,36c-2.432-1.217-6.2-1.528-6.2-5.269C187.551,28.084,189.266,26.338,192.508,26.338Z"/><path class="cls-9" d="M201.707,42.674a1.5,1.5,0,0,1-1.5-1.5,1.512,1.512,0,0,1,1.5-1.466,1.482,1.482,0,0,1,0,2.962Z"/><path class="cls-9" d="M209.128,22.441a1.294,1.294,0,1,1,1.278-1.278A1.291,1.291,0,0,1,209.128,22.441Zm0,20.171a.993.993,0,0,1-1.029-1V27.46a1.019,1.019,0,0,1,1.029-1.029,1.032,1.032,0,0,1,1,1.029V41.614A1,1,0,0,1,209.128,42.612Z"/><path class="cls-9" d="M214.46,37.156V31.794c0-3.087,2.026-5.488,5.768-5.488,3.772,0,5.767,2.4,5.767,5.488v5.362c0,3.086-2,5.456-5.767,5.456C216.486,42.612,214.46,40.242,214.46,37.156Zm9.509,0V31.762c0-2.245-1.248-3.648-3.741-3.648-2.463,0-3.742,1.4-3.742,3.648v5.394c0,2.245,1.279,3.616,3.742,3.616C222.721,40.772,223.969,39.4,223.969,37.156Z"/></g></g></g></svg>