<svg xmlns="http://www.w3.org/2000/svg" viewBox="0 0 21.707 18.056"><defs><style>.cls-1{fill:#7aa7d9;}.cls-2{fill:#fff;}</style></defs><title>твиттер</title><g id="Слой_2" data-name="Слой 2"><g id="hobots.io"><g id="твиттер"><path id="иконка_при_курсоре" data-name="иконка при курсоре" class="cls-1" d="M21.362,2.1a8.641,8.641,0,0,1-1.5.5A4.671,4.671,0,0,0,21.1.644h0a.245.245,0,0,0-.358-.285h0a8.685,8.685,0,0,1-2.288.945.578.578,0,0,1-.143.018.61.61,0,0,1-.4-.153A4.678,4.678,0,0,0,14.811,0a5,5,0,0,0-1.483.229A4.536,4.536,0,0,0,10.272,3.5a4.989,4.989,0,0,0-.11,1.723.167.167,0,0,1-.043.131.174.174,0,0,1-.129.059H9.974A12.276,12.276,0,0,1,1.539.9h0a.245.245,0,0,0-.4.031h0A4.688,4.688,0,0,0,1.9,6.622,4.178,4.178,0,0,1,.832,6.209h0a.244.244,0,0,0-.363.211h0A4.687,4.687,0,0,0,3.2,10.737H3.1a4.2,4.2,0,0,1-.788-.076h0a.245.245,0,0,0-.279.315h0A4.69,4.69,0,0,0,5.74,14.168,8.642,8.642,0,0,1,.9,15.636H.362a.36.36,0,0,0-.351.27.372.372,0,0,0,.178.41,12.839,12.839,0,0,0,6.454,1.74,13.012,13.012,0,0,0,5.516-1.17A12.194,12.194,0,0,0,16.2,13.862a13.272,13.272,0,0,0,2.471-4.139,13.084,13.084,0,0,0,.84-4.529V5.122a.792.792,0,0,1,.3-.619A9.253,9.253,0,0,0,21.665,2.46h0a.244.244,0,0,0-.3-.359Z"/><path id="иконка" class="cls-2" d="M21.362,2.1a8.641,8.641,0,0,1-1.5.5A4.671,4.671,0,0,0,21.1.644h0a.245.245,0,0,0-.358-.285h0a8.685,8.685,0,0,1-2.288.945.578.578,0,0,1-.143.018.61.61,0,0,1-.4-.153A4.678,4.678,0,0,0,14.811,0a5,5,0,0,0-1.483.229A4.536,4.536,0,0,0,10.272,3.5a4.989,4.989,0,0,0-.11,1.723.167.167,0,0,1-.043.131.174.174,0,0,1-.129.059H9.974A12.276,12.276,0,0,1,1.539.9h0a.245.245,0,0,0-.4.031h0A4.688,4.688,0,0,0,1.9,6.622,4.178,4.178,0,0,1,.832,6.209h0a.244.244,0,0,0-.363.211h0A4.687,4.687,0,0,0,3.2,10.737H3.1a4.2,4.2,0,0,1-.788-.076h0a.245.245,0,0,0-.279.315h0A4.69,4.69,0,0,0,5.74,14.168,8.642,8.642,0,0,1,.9,15.636H.362a.36.36,0,0,0-.351.27.372.372,0,0,0,.178.41,12.839,12.839,0,0,0,6.454,1.74,13.012,13.012,0,0,0,5.516-1.17A12.194,12.194,0,0,0,16.2,13.862a13.272,13.272,0,0,0,2.471-4.139,13.084,13.084,0,0,0,.84-4.529V5.122a.792.792,0,0,1,.3-.619A9.253,9.253,0,0,0,21.665,2.46h0a.244.244,0,0,0-.3-.359Z"/></g></g></g></svg>