<svg xmlns="http://www.w3.org/2000/svg" viewBox="0 0 20.702 18.097"><defs><style>.cls-1{fill:#4eb0e3;}.cls-2{fill:#fff;}</style></defs><title>телеграм</title><g id="Слой_2" data-name="Слой 2"><g id="hobots.io"><g id="телеграм"><path id="иконка_при_курсоре" data-name="иконка при курсоре" class="cls-1" d="M19.937.039.36,7.591A.563.563,0,0,0,.366,8.643l4.77,1.78,1.846,5.938a.561.561,0,0,0,.892.268l2.659-2.167a.793.793,0,0,1,.967-.027l4.8,3.482a.562.562,0,0,0,.881-.34L20.69.678A.562.562,0,0,0,19.937.039ZM16.2,3.991,8.509,11.142a1.6,1.6,0,0,0-.494.955l-.262,1.942a.241.241,0,0,1-.471.034L6.274,10.531a.939.939,0,0,1,.411-1.056l9.322-5.741A.162.162,0,0,1,16.2,3.991Z"/><path id="иконка" class="cls-2" d="M19.937.111.36,7.664A.562.562,0,0,0,.366,8.715L5.136,10.5l1.846,5.938a.562.562,0,0,0,.892.268l2.659-2.168a.794.794,0,0,1,.967-.027l4.8,3.482a.562.562,0,0,0,.881-.34L20.69.75A.563.563,0,0,0,19.937.111ZM16.2,4.063,8.509,11.215a1.6,1.6,0,0,0-.494.955l-.262,1.942a.241.241,0,0,1-.471.034L6.274,10.6a.939.939,0,0,1,.411-1.056l9.322-5.742A.162.162,0,0,1,16.2,4.063Z"/></g></g></g></svg>