<svg xmlns="http://www.w3.org/2000/svg" viewBox="0 0 10.677 21.136"><defs><style>.cls-1{fill:#385d8f;}.cls-2{fill:#fff;}</style></defs><title>фейсбук</title><g id="Слой_2" data-name="Слой 2"><g id="hobots.io"><g id="фейсбук"><path id="иконка_при_курсоре" data-name="иконка при курсоре" class="cls-1" d="M.341,11.257H2.658V20.8A.34.34,0,0,0,3,21.136H6.927a.341.341,0,0,0,.341-.341V11.3H9.931a.341.341,0,0,0,.339-.3l.405-3.511a.342.342,0,0,0-.339-.38H7.268v-2.2c0-.664.357-1,1.062-1h2.006a.341.341,0,0,0,.341-.341V.343A.341.341,0,0,0,10.336,0H7.572c-.02,0-.063,0-.127,0A5.3,5.3,0,0,0,3.981,1.306,3.634,3.634,0,0,0,2.773,4.535V7.109H.341A.341.341,0,0,0,0,7.45v3.466A.341.341,0,0,0,.341,11.257Z"/><path id="иконка" class="cls-2" d="M.341,11.257H2.658V20.8A.34.34,0,0,0,3,21.136H6.927a.341.341,0,0,0,.341-.341V11.3H9.931a.341.341,0,0,0,.339-.3l.405-3.511a.342.342,0,0,0-.339-.38H7.268v-2.2c0-.664.357-1,1.062-1h2.006a.341.341,0,0,0,.341-.341V.343A.341.341,0,0,0,10.336,0H7.572c-.02,0-.063,0-.127,0A5.3,5.3,0,0,0,3.981,1.306,3.634,3.634,0,0,0,2.773,4.535V7.109H.341A.341.341,0,0,0,0,7.45v3.466A.341.341,0,0,0,.341,11.257Z"/></g></g></g></svg>